# xmcd
#
# Track frame offsets:
#	150
#	21345
#	37042
#	60442
#	78882
#	99527
#	122052
#	142072
#
# Disc length: 3562 seconds
#
# Revision: 0
# Processed by: cddbd v1.5.1PL0 Copyright (c) Steve Scherf et al.
# Submitted via: dBpowerAMP V4.0
#
DISCID=670de808
DTITLE=Kasey Chambers - Wayward Angel
DYEAR=1900
DGENRE=
TTITLE0=Pony
TTITLE1=Hollwood
TTITLE2=Stronger
TTITLE3=Bluebird
TTITLE4=More than ordinary
TTITLE5=Wayward angel
TTITLE6=Paper aeroplane
TTITLE7=Like a river
EXTD=
EXTT0=
EXTT1=
EXTT2=
EXTT3=
EXTT4=
EXTT5=
EXTT6=
EXTT7=
PLAYORDER=
